# AST/ASF file generated using VICON BodyLanguage
# -----------------------------------------------
:version 1.10
:name VICON
:units
  mass 1.0
  length 0.45
  angle deg
:documentation
   .ast/.asf automatically generated from VICON data using
   VICON BodyBuilder and BodyLanguage model FoxedUp or BRILLIANT.MOD
:root
   order TX TY TZ RX RY RZ
   axis XYZ
   position 0 0 0  
   orientation 0 0 0 
:bonedata
  begin
     id 1 
     name lhipjoint
     direction 0.702568 -0.596508 0.388042 
     length 2.56661 
     axis 0 0 0  XYZ
  end
  begin
     id 2 
     name lfemur
     direction 0.34202 -0.939693 0  
     length 6.58374  
     axis 0 0 20  XYZ
    dof rx ry rz
    limits (-160.0 20.0)
           (-70.0 70.0)
           (-60.0 70.0)
  end
  begin
     id 3 
     name ltibia
     direction 0.34202 -0.939693 0   
     length 6.62538   
     axis 0 0 20   XYZ
    dof rx
    limits (-10.0 170.0)
  end
  begin
     id 4 
     name lfoot
     direction 0.10455 -0.287249 0.952133   
     length 2.26699   
     axis -90 7.62852e-016 20   XYZ
    dof rx rz
    limits (-45.0 90.0)
           (-70.0 20.0)
  end
  begin
     id 5 
     name ltoes
     direction 1.53572e-011 -4.22322e-011 1   
     length 1.12949   
     axis -90 7.62852e-016 20   XYZ
    dof rx
    limits (-90.0 20.0)
  end
  begin
     id 6 
     name rhipjoint
     direction -0.728055 -0.574632 0.373811   
     length 2.66432  
     axis 0 0 0  XYZ 
  end
  begin
     id 7 
     name rfemur
     direction -0.34202 -0.939693 0   
     length 6.66732   
     axis 0 0 -20   XYZ
    dof rx ry rz
    limits (-160.0 20.0)
           (-70.0 70.0)
           (-70.0 60.0)
  end
  begin
     id 8 
     name rtibia
     direction -0.34202 -0.939693 0   
     length 6.59288   
     axis 0 0 -20   XYZ
    dof rx
    limits (-10.0 170.0)
 end
 begin
     id 9 
     name rfoot
     direction -0.119193 -0.327479 0.93731   
     length 2.38061  
     axis -90 -7.62852e-016 -20   XYZ
    dof rx rz
    limits (-45.0 90.0)
           (-20.0 70.0)
  end
  begin
     id 10 
     name rtoes
     direction -1.53547e-011 -4.21827e-011 1   
     length 1.17899   
     axis -90 -7.62852e-016 -20   XYZ
    dof rx
    limits (-90.0 20.0)
  end
  begin
     id 11 
     name lowerback
     direction -0.000416114 0.999912 -0.0132284   
     length 2.12109   
     axis 0 0 0   XYZ
    dof rx ry rz
    limits (-20.0 45.0)
           (-30.0 30.0)
           (-30.0 30.0)
  end
  begin
     id 12 
     name upperback
     direction -0.00136371 0.99809 0.0617608   
     length 2.10067   
     axis 0 0 0   XYZ
    dof rx ry rz
    limits (-20.0 45.0)
           (-30.0 30.0)
           (-30.0 30.0)
  end
  begin
     id 13 
     name thorax
     direction -3.43026e-005 0.997776 0.0666515   
     length 2.10618   
     axis 0 0 0   XYZ
    dof rx ry rz
    limits (-20.0 45.0)
           (-30.0 30.0)
           (-30.0 30.0)
  end
  begin
     id 14 
     name lowerneck
     direction 0.0398646 0.998418 0.0396592   
     length 1.83817   
     axis 0 0 0   XYZ
    dof rx ry rz
    limits (-20.0 45.0)
           (-30.0 30.0)
           (-30.0 30.0)
  end
  begin
     id 15 
     name upperneck
     direction -0.0367268 0.961527 -0.272244   
     length 1.81975   
     axis 0 0 0   XYZ
    dof rx ry rz
    limits (-20.0 45.0)
           (-30.0 30.0)
           (-30.0 30.0)
  end
  begin
     id 16
     name head
     direction -0.0182665 0.99536 -0.0944669  
     length 1.86026  
     axis 0 0 0   XYZ
    dof rx ry rz
    limits (-20.0 45.0)
           (-30.0 30.0)
           (-30.0 30.0)
  end
  begin
     id 17 
     name lclavicle
     direction 0.924239 0.361045 0.124212  
     length 3.26878  
     axis 0 0 0   XYZ
    dof ry rz
    limits (-20.0 10.0)
           (0.0 20.0)
  end
  begin
     id 18 
     name lhumerus
     direction 1 -4.48968e-011 -2.56583e-027   
     length 4.58538   
     axis 180 -30 -90   XYZ
    dof rx ry rz
    limits (-60.0 90.0)
           (-90.0 90.0)
           (-90.0 90.0)
  end
  begin
     id 19
     name lradius
     direction 1 -4.4898e-011 -5.50375e-027   
     length 2.68935   
     axis 180 -30 -90   XYZ
    dof rx
    limits (-10.0 170.0)
  end
  begin
     id 20
     name lwrist
     direction 1 -4.48939e-011 -1.48955e-026   
     length 1.34468   
     axis 9.0955e-015 90 90   XYZ
    dof ry
    limits (-180.0 0.0)
 end
  begin
     id 21 
     name lhand
     direction 1 -4.48936e-011 -2.97907e-026   
     length 0.585058   
     axis 1.90115e-014 90 90   XYZ
    dof rx rz
    limits (-90.0 90.0)
           (-45.0 45.0)
  end
  begin
     id 22 
     name lfingers
     direction 1 -4.49082e-011 -5.96235e-026   
     length 0.471689   
     axis 3.80223e-014 90 90   XYZ
    dof rx
    limits (0.0 90.0)
  end
  begin
     id 23
     name lthumb
     direction 0.707107 -6.3489e-011 0.707107   
     length 0.677253   
     axis -90 45 -3.84942e-014   XYZ
    dof rx rz
    limits (-45.0 45.0)
           (-45.0 45.0)
  end
  begin
     id 24 
     name rclavicle
     direction -0.923098 0.371783 0.0983239   
     length 3.19656  
     axis 0 0 0   XYZ 
    dof ry rz
    limits (-10.0 20.0)
           (-20.0 0.0)
  end
  begin
     id 25 
     name rhumerus
     direction -1 -4.48976e-011 -2.5492e-027  
     length 4.4745   
     axis 180 30 90   XYZ
    dof rx ry rz
    limits (-90.0 60.0)
           (-90.0 90.0)
           (-90.0 90.0)
  end
  begin
     id 26 
     name rradius
     direction -1 -4.48941e-011 -4.36555e-027   
     length 2.93896   
     axis 180 30 90   XYZ
    dof rx
    limits (-10.0 170.0)
  end
  begin
     id 27 
     name rwrist
     direction -1 -4.49044e-011 -1.49032e-026   
     length 1.46948   
     axis 9.0955e-015 -90 -90   XYZ
    dof ry
    limits (-180.0 0.0)
  end
  begin
     id 28
     name rhand
     direction -1 -4.48826e-011 -2.97749e-026   
     length 0.405092   
     axis 1.90115e-014 -90 -90   XYZ
    dof rx rz
    limits (-90.0 90.0)
           (-45.0 45.0)
  end
  begin
     id 29
     name rfingers
     direction -1 -4.49209e-011 -5.96602e-026   
     length 0.326596   
     axis 3.80223e-014 -90 -90   XYZ
    dof rx
    limits (0.0 90.0)
  end
  begin
     id 30
     name rthumb
     direction -0.707107 -6.34776e-011 0.707107   
     length 0.468928   
     axis -90 -45 3.84942e-014   XYZ
    dof rx rz
    limits (-45.0 45.0)
           (-45.0 45.0)
  end
:hierarchy
  begin
    root lhipjoint rhipjoint lowerback
    lhipjoint lfemur
    lfemur ltibia
    ltibia lfoot
    lfoot ltoes
    rhipjoint rfemur
    rfemur rtibia
    rtibia rfoot
    rfoot rtoes
    lowerback upperback
    upperback thorax
    thorax lowerneck lclavicle rclavicle
    lowerneck upperneck
    upperneck head
    lclavicle lhumerus
    lhumerus lradius
    lradius lwrist
    lwrist lhand lthumb
    lhand lfingers
    rclavicle rhumerus
    rhumerus rradius
    rradius rwrist
    rwrist rhand rthumb
    rhand rfingers
  end

#!OML:ASF H:\Punching\Project 1\Capture day 1\Session 1\female.ASF
:FULLY-SPECIFIED
:DEGREES
523
root 1.43385 14.2344 0.0612624 12.34 -10.0394 -2.51375
lowerback -8.16533 6.32977 7.92654
upperback -10.197 8.01278 -3.15041
thorax -4.72508 3.43423 -7.31758
lowerneck -10.4595 1.5656 8.38474
upperneck 31.1901 1.93637 -4.9794
head 12.1019 1.25882 -3.08676
rclavicle -1.09332e-015 -1.27222e-014
rhumerus -15.5663 10.6386 -68.4022
rradius 130.793
rwrist -12.3778
rhand -28.743 10.3057
rfingers 7.12502
rthumb -2.10351 -19.6637
lclavicle -1.09332e-015 -1.27222e-014
lhumerus -20.0928 -7.49983 46.9388
lradius 139.627
lwrist -0.723843
lhand -26.8324 5.33318
lfingers 7.12502
lthumb -0.258196 35.3128
rfemur 7.98812 0.972086 19.7699
rtibia 40.3694
rfoot -10.3923 -33.9069
rtoes -10.4241
lfemur -53.57 2.22067 -21.2605
ltibia 59.5543
lfoot -15.6844 9.79684
ltoes 6.66494
524
root 1.46221 14.269 0.191731 11.2903 -9.01198 -1.9801
lowerback -7.81706 6.19208 7.29226
upperback -10.1553 7.88338 -3.17227
thorax -4.95873 3.39732 -7.04042
lowerneck -10.3541 1.2187 8.18279
upperneck 31.9843 1.34039 -4.44704
head 12.3515 1.05316 -2.94532
rclavicle -6.54002e-014 7.95139e-016
rhumerus -16.7354 9.81749 -67.5214
rradius 130.772
rwrist -12.3933
rhand -28.563 10.09
rfingers 7.12502
rthumb -1.9297 -19.881
lclavicle -6.54002e-014 7.95139e-016
lhumerus -19.9618 -8.0855 47.5249
lradius 139.532
lwrist -1.06394
lhand -26.6982 5.14818
lfingers 7.12502
lthumb -0.128637 35.1279
rfemur 6.79668 0.389979 19.1526
rtibia 44.4199
rfoot -6.60993 -30.9083
rtoes -10.0479
lfemur -51.6357 1.54271 -22.0725
ltibia 58.832
lfoot -15.9369 9.50749
ltoes 6.90841
525
root 1.48608 14.3026 0.313595 10.2432 -7.95547 -1.33594
lowerback -7.44441 5.99588 6.46973
upperback -10.0823 7.67668 -3.20898
thorax -5.20176 3.33399 -6.68003
lowerneck -10.2467 0.906766 8.02073
upperneck 32.7425 0.77179 -3.90345
head 12.599 0.868376 -2.80013
rclavicle 4.31363e-014 5.56597e-015
rhumerus -17.8882 9.02213 -66.6716
rradius 130.736
rwrist -12.3457
rhand -28.3868 9.89209
rfingers 7.12502
rthumb -1.75947 -20.0804
lclavicle 4.31363e-014 5.56597e-015
lhumerus -19.7604 -8.67746 48.2057
lradius 139.449
lwrist -1.36404
lhand -26.5833 5.008
lfingers 7.12502
lthumb -0.0176341 34.9877
rfemur 5.36685 -0.162701 18.4513
rtibia 48.7075
rfoot -4.13978 -27.372
rtoes -10.7089
lfemur -49.6744 0.786403 -22.9704
ltibia 58.0048
lfoot -16.1211 9.26074
ltoes 7.29865
526
root 1.50557 14.3355 0.427509 9.24571 -6.86017 -0.601438
lowerback -7.09493 5.74933 5.47993
upperback -9.98202 7.39741 -3.25688
thorax -5.42692 3.24692 -6.23637
lowerneck -10.1375 0.627322 7.89821
upperneck 33.457 0.229893 -3.35589
head 12.8406 0.702977 -2.65372
rclavicle -7.35503e-015 -4.21423e-014
rhumerus -19.0168 8.26325 -65.8528
rradius 130.695
rwrist -12.2511
rhand -28.2625 9.72445
rfingers 7.12502
rthumb -1.63947 -20.249
lclavicle -7.35503e-015 -4.21423e-014
lhumerus -19.4918 -9.29028 48.9934
lradius 139.372
lwrist -1.64167
lhand -26.5253 4.91568
lfingers 7.12502
lthumb 0.0383839 34.8954
rfemur 3.68305 -0.699449 17.6795
rtibia 53.1489
rfoot -2.86416 -23.6339
rtoes -12.1954
lfemur -47.7353 -0.0450256 -23.9413
ltibia 57.0856
lfoot -16.2174 9.05551
ltoes 7.72797
527
root 1.52117 14.368 0.534592 8.33826 -5.7168 0.1559
lowerback -6.79454 5.46189 4.39731
upperback -9.87029 7.05538 -3.29919
thorax -5.62638 3.13682 -5.72875
lowerneck -10.0094 0.375986 7.81118
upperneck 34.1291 -0.285954 -2.81112
head 13.0716 0.555227 -2.50794
rclavicle 8.20981e-014 1.27222e-014
rhumerus -20.1317 7.56028 -65.0716
rradius 130.657
rwrist -12.1413
rhand -28.2041 9.57717
rfingers 7.12502
rthumb -1.58301 -20.3967
lclavicle 8.20981e-014 1.27222e-014
lhumerus -19.1805 -9.93708 49.8906
lradius 139.309
lwrist -1.88555
lhand -26.508 4.84622
lfingers 7.12502
lthumb 0.0550621 34.826
rfemur 1.73733 -1.21932 16.9084
rtibia 57.6565
rfoot -2.4053 -19.9866
rtoes -13.8293
lfemur -45.8626 -0.943977 -24.9168
ltibia 56.0976
lfoot -16.2274 8.88695
ltoes 8.14155
528
root 1.53349 14.4015 0.636193 7.54114 -4.51908 0.851576
lowerback -6.56226 5.14027 3.31704
upperback -9.74747 6.65931 -3.31299
thorax -5.77792 3.00338 -5.18214
lowerneck -9.88161 0.152915 7.75599
upperneck 34.771 -0.772999 -2.27659
head 13.3006 0.424938 -2.36506
rclavicle -5.74488e-014 -9.54166e-015
rhumerus -21.2142 6.92102 -64.3305
rradius 130.627
rwrist -12.0515
rhand -28.21 9.43556
rfingers 7.12502
rthumb -1.58872 -20.5383
lclavicle -5.74488e-014 -9.54166e-015
lhumerus -18.8339 -10.6201 50.8944
lradius 139.253
lwrist -2.11041
lhand -26.5785 4.77551
lfingers 7.12502
lthumb -0.0129613 34.7553
rfemur -0.471967 -1.73981 16.224
rtibia 62.1491
rfoot -2.43279 -16.6167
rtoes -15.3794
lfemur -44.0795 -1.89676 -25.8088
ltibia 55.0699
lfoot -16.16 8.73557
ltoes 8.52157
529
root 1.54326 14.4373 0.733447 6.85127 -3.27691 1.40262
lowerback -6.39403 4.79299 2.33687
upperback -9.61705 6.22288 -3.2765
thorax -5.87541 2.84749 -4.62777
lowerneck -9.75223 -0.0451206 7.73131
upperneck 35.3881 -1.23173 -1.76103
head 13.5283 0.310537 -2.22851
rclavicle -8.0309e-014 3.18055e-015
rhumerus -22.2498 6.35057 -63.6387
rradius 130.606
rwrist -12.017
rhand -28.267 9.30029
rfingers 7.12502
rthumb -1.64377 -20.6731
lclavicle -8.0309e-014 3.18055e-015
lhumerus -18.4698 -11.3433 51.9922
lradius 139.202
lwrist -2.3353
lhand -26.7135 4.71048
lfingers 7.12502
lthumb -0.143391 34.6902
rfemur -2.93386 -2.2603 15.7135
rtibia 66.5598
rfoot -2.64898 -13.6249
rtoes -16.582
lfemur -42.3914 -2.88304 -26.5307
ltibia 54.0356
lfoot -16.041 8.59516
ltoes 8.85267
530
root 1.55101 14.4764 0.826831 6.24125 -2.00981 1.76182
lowerback -6.26202 4.42738 1.51783
upperback -9.48025 5.7586 -3.17663
thorax -5.92818 2.67109 -4.08869
lowerneck -9.62416 -0.219102 7.73203
upperneck 35.9875 -1.66054 -1.26832
head 13.7578 0.211579 -2.09894
rclavicle 2.10712e-014 -2.38542e-015
rhumerus -23.2235 5.84827 -63.0061
rradius 130.591
rwrist -12.0592
rhand -28.3555 9.16903
rfingers 7.12502
rthumb -1.72924 -20.8037
lclavicle 2.10712e-014 -2.38542e-015
lhumerus -18.1017 -12.105 53.17
lradius 139.154
lwrist -2.57921
lhand -26.8954 4.64501
lfingers 7.12502
lthumb -0.319028 34.6245
rfemur -5.618 -2.76762 15.4281
rtibia 70.84
rfoot -2.85795 -11.1472
rtoes -17.3591
lfemur -40.7866 -3.88495 -27.0336
ltibia 53.0254
lfoot -15.8982 8.46438
ltoes 9.15356
531
root 1.55757 14.5191 0.916859 5.6777 -0.758372 1.89456
lowerback -6.15355 4.05556 0.905092
upperback -9.32733 5.2843 -2.9986
thorax -5.92846 2.48049 -3.57545
lowerneck -9.50492 -0.368076 7.75286
upperneck 36.5676 -2.05329 -0.808174
head 13.9893 0.128463 -1.97865
rclavicle 1.59028e-014 -1.35174e-014
rhumerus -24.1048 5.41151 -62.4319
rradius 130.579
rwrist -12.1861
rhand -28.461 9.05145
rfingers 7.12502
rthumb -1.83113 -20.9204
lclavicle 1.59028e-014 -1.35174e-014
lhumerus -17.7337 -12.8943 54.4243
lradius 139.095
lwrist -2.85557
lhand -27.0951 4.56897
lfingers 7.12502
lthumb -0.511966 34.5481
rfemur -8.50409 -3.21313 15.4019
rtibia 74.9569
rfoot -2.95339 -9.2659
rtoes -17.7642
lfemur -39.2512 -4.87254 -27.2854
ltibia 52.0644
lfoot -15.7643 8.35658
ltoes 9.44473
532
root 1.56348 14.5648 1.00333 5.13854 0.445355 1.78979
lowerback -6.05047 3.68928 0.522923
upperback -9.16401 4.81604 -2.74188
thorax -5.8912 2.28152 -3.1039
lowerneck -9.38977 -0.493836 7.78475
upperneck 37.135 -2.41064 -0.376454
head 14.2239 0.0601899 -1.86465
rclavicle 4.17448e-014 9.93923e-015
rhumerus -24.8986 5.02846 -61.9168
rradius 130.581
rwrist -12.4056
rhand -28.547 8.90657
rfingers 7.12502
rthumb -1.91426 -21.0646
lclavicle 4.17448e-014 9.93923e-015
lhumerus -17.3733 -13.7271 55.7526
lradius 139.008
lwrist -3.20817
lhand -27.3101 4.50802
lfingers 7.12502
lthumb -0.71959 34.4866
rfemur -11.5831 -3.55603 15.6415
rtibia 78.8915
rfoot -2.89744 -7.9513
rtoes -17.8612
lfemur -37.7869 -5.82477 -27.278
ltibia 51.1689
lfoot -15.6537 8.28115
ltoes 9.7164
533
root 1.56917 14.6136 1.08614 4.59941 1.57951 1.47032
lowerback -5.93954 3.33397 0.353379
upperback -8.98563 4.36138 -2.41106
thorax -5.82232 2.07878 -2.67086
lowerneck -9.28996 -0.595252 7.83281
upperneck 37.6919 -2.72836 0.0149451
head 14.4646 0.00763878 -1.76241
rclavicle -2.06736e-014 -1.19271e-015
rhumerus -25.5861 4.68811 -61.4565
rradius 130.587
rwrist -12.6964
rhand -28.6158 8.77549
rfingers 7.12502
rthumb -1.98068 -21.1951
lclavicle -2.06736e-014 -1.19271e-015
lhumerus -17.0116 -14.6105 57.157
lradius 138.867
lwrist -3.65093
lhand -27.531 4.44981
lfingers 7.12502
lthumb -0.932937 34.4275
rfemur -14.836 -3.77274 16.1115
rtibia 82.6333
rfoot -2.72096 -7.11186
rtoes -17.7744
lfemur -36.3806 -6.72902 -27.0413
ltibia 50.341
lfoot -15.5732 8.2489
ltoes 9.92759
534
root 1.57467 14.6644 1.16498 4.04537 2.63538 0.977603
lowerback -5.8125 2.98929 0.355239
upperback -8.78743 3.92013 -2.01598
thorax -5.7266 1.87442 -2.26518
lowerneck -9.21428 -0.67103 7.8919
upperneck 38.2405 -3.00364 0.366508
head 14.7139 -0.0287053 -1.6708
rclavicle -2.71341e-014 7.95139e-016
rhumerus -26.1576 4.38154 -61.0394
rradius 130.596
rwrist -13.0325
rhand -28.677 8.65983
rfingers 7.12502
rthumb -2.03974 -21.3102
lclavicle -2.71341e-014 7.95139e-016
lhumerus -16.6361 -15.5334 58.6248
lradius 138.66
lwrist -4.16205
lhand -27.7464 4.38972
lfingers 7.12502
lthumb -1.14096 34.3664
rfemur -18.2543 -3.87489 16.745
rtibia 86.1854
rfoot -2.51076 -6.56704
rtoes -17.6058
lfemur -35.0223 -7.57726 -26.6229
ltibia 49.5711
lfoot -15.5155 8.24837
ltoes 10.0899
535
root 1.57976 14.7163 1.23957 3.46338 3.60754 0.365009
lowerback -5.64486 2.65654 0.476574
upperback -8.57842 3.49416 -1.57352
thorax -5.63227 1.67173 -1.87813
lowerneck -9.13532 -0.725114 7.96727
upperneck 38.7744 -3.23679 0.671849
head 14.9615 -0.049816 -1.59323
rclavicle -2.08724e-014 -1.31198e-014
rhumerus -26.6317 4.10604 -60.66
rradius 130.607
rwrist -13.3772
rhand -28.7262 8.56408
rfingers 7.12502
rthumb -2.08727 -21.4055
lclavicle -2.08724e-014 -1.31198e-014
lhumerus -16.2572 -16.4886 60.1322
lradius 138.414
lwrist -4.6532
lhand -27.8937 4.31654
lfingers 7.12502
lthumb -1.28327 34.2924
rfemur -21.8253 -3.86925 17.4619
rtibia 89.5559
rfoot -2.34059 -6.13594
rtoes -17.2812
lfemur -33.6918 -8.36326 -26.0842
ltibia 48.8382
lfoot -15.4683 8.27652
ltoes 10.1714
